<?xml version="1.0" encoding="utf-8"?>
<!-- Generator: Adobe Illustrator 27.9.0, SVG Export Plug-In . SVG Version: 6.00 Build 0)  -->
<svg version="1.1" xmlns="http://www.w3.org/2000/svg" xmlns:xlink="http://www.w3.org/1999/xlink" x="0px" y="0px"
	 viewBox="0 0 121 42" style="enable-background:new 0 0 121 42;" xml:space="preserve">
<style type="text/css">
	.st0{display:none;}
	.st1{fill:#FFFFFF;}
</style>
<g id="Layer_2" class="st0">
</g>
<g id="Layer_1">
	<g>
		<path class="st1" d="M37.4,3.7H15.7c-3.5,0-6.5,2.9-6.5,6.5v21.7c0,3.5,2.9,6.5,6.5,6.5h21.7c3.5,0,6.5-2.9,6.5-6.5V10.1
			C43.9,6.6,41,3.7,37.4,3.7z M34.7,18.4c-1.8,0.2-3.4,0.9-4.5,2.4c-0.5,0.8-0.9,1.7-0.8,2.9c1.8,0,3.5,0,5.2,0
			c0.4,2.8-2.6,5.7-5.4,5.4c-0.1-1.7,0-3.5,0-5.2c-1.5,0.1-2.7,0.6-3.7,1.6c-1,1-1.4,2.3-1.6,3.7c-1.8,0-3.6,0-5.4,0
			c0-1.8,0-3.5,0-5.3c0.4-0.1,0.7-0.1,1-0.2c2.5-0.5,4.1-2.4,4.3-5c0-0.1,0-0.2,0-0.3c-1.8,0-3.5,0-5.4,0c0-1.8,0-3.5,0-5.4
			c1.8-0.1,3.6,0,5.3,0c0.2,0.7,0.2,4.1,0.1,5.4l0,0c2.4-0.1,4.1-1.2,5-3.5c0.2-0.6,0.3-1.2,0.5-1.9c1.7-0.1,3.5,0,5.4-0.1
			C34.7,14.8,34.7,16.5,34.7,18.4z"/>
		<g>
			<path class="st1" d="M67.8,11.4l-8.1,8.7l8.7,9.2v0.2h-4.2l-7.6-8v8h-3.4V11.3h3.4v7.7l6.9-7.7h4.3V11.4z"/>
			<path class="st1" d="M81,23c0,3.7-2.5,6.7-6.7,6.7s-6.6-3-6.6-6.7c0-3.7,2.5-6.7,6.6-6.7C78.4,16.4,81,19.4,81,23z M70.9,23
				c0,1.9,1.2,3.8,3.5,3.8c2.3,0,3.5-1.8,3.5-3.8c0-1.9-1.3-3.8-3.5-3.8C72.1,19.2,70.9,21.1,70.9,23z"/>
			<path class="st1" d="M82.9,35.3V16.6h3l0.2,1.8c1-1.4,2.7-2,4.1-2c3.9,0,6.6,2.9,6.6,6.7c0,3.7-2.4,6.7-6.5,6.7
				c-1.3,0-3.3-0.4-4.3-1.8v7.4H82.9z M93.6,23c0-2-1.3-3.6-3.6-3.6S86.3,21,86.3,23c0,2,1.5,3.6,3.6,3.6C92.1,26.7,93.6,25,93.6,23
				z"/>
			<path class="st1" d="M108.7,16.6h3v12.8h-3l-0.2-1.9c-0.7,1.5-2.7,2.2-4.1,2.3c-3.8,0-6.6-2.3-6.6-6.8c0-4.4,2.9-6.7,6.7-6.7
				c1.7,0,3.3,0.8,4.1,2.1L108.7,16.6z M101,23c0,2.4,1.7,3.9,3.8,3.9c5,0,5-7.8,0-7.8C102.7,19.1,101,20.6,101,23z"/>
		</g>
	</g>
</g>
</svg>
