<?xml version="1.0" encoding="utf-8"?>
<!-- Generator: Adobe Illustrator 27.9.0, SVG Export Plug-In . SVG Version: 6.00 Build 0)  -->
<svg version="1.1" xmlns="http://www.w3.org/2000/svg" xmlns:xlink="http://www.w3.org/1999/xlink" x="0px" y="0px"
	 viewBox="0 0 43.2 25.9" style="enable-background:new 0 0 43.2 25.9;" xml:space="preserve">
<style type="text/css">
	.st0{display:none;}
	.st1{fill:#FEFBF9;}
</style>
<g id="Layer_2" class="st0">
</g>
<g id="Layer_1">
	<g>
		<g>
			<path class="st1" d="M17.7,9.5c0,0,0,0.1,0.1,0.2c0.1,0.1,0.1,0.2,0.2,0.3c0.1,0.1,0.1,0.2,0.2,0.4c0.1,0.1,0.1,0.2,0.1,0.2
				c0,0,0,0,0,0c0,0,0,0,0,0c-0.1,0-0.2,0-0.3,0c-0.2,0-0.3-0.1-0.5-0.1c-0.2,0-0.3-0.1-0.4-0.1c-0.1,0-0.2-0.1-0.2-0.1
				c0,0,0,0,0-0.1c0,0,0,0,0,0c0,0,0-0.1,0-0.2s0-0.2,0-0.2c0-0.2,0-0.4,0-0.6c0-0.2,0-0.5,0-0.7c0-0.2,0-0.4,0-0.6
				c0-0.2,0-0.2,0-0.3c0,0-0.1,0-0.2,0c-0.1,0-0.2,0-0.4,0.1c-0.2,0-0.3,0.1-0.5,0.1c-0.2,0-0.3,0.1-0.4,0.1c-0.1,0-0.2,0.1-0.2,0.1
				c0,0-0.1,0.1-0.1,0.3c0,0.2,0,0.4-0.1,0.6c0,0.2,0,0.5-0.1,0.8c0,0,0,0.1,0,0.1c0,0.1,0,0.2,0.1,0.2c0,0.1,0,0.2,0.1,0.3
				c0,0.1,0,0.2,0,0.2c0,0,0,0.1,0,0.1c0,0,0,0,0,0c-0.1,0.1-0.1,0.1-0.3,0.2c-0.1,0.1-0.3,0.2-0.4,0.2c-0.2,0.1-0.3,0.1-0.5,0.2
				c-0.1,0.1-0.2,0.1-0.3,0.1c0,0-0.1,0-0.1,0c0,0,0-0.1,0.1-0.3c0.1-0.1,0.1-0.2,0.2-0.4c0.1-0.1,0.2-0.3,0.3-0.5
				c0,0,0-0.1,0.1-0.2c0-0.1,0.1-0.2,0.1-0.3C14,9.6,14,9.4,14,9.3c0-0.2,0.1-0.3,0.1-0.4c0-0.1,0.1-0.3,0.1-0.4c0-0.1,0-0.2,0-0.2
				c0,0,0-0.1-0.1-0.1c0-0.1-0.1-0.2-0.2-0.3c-0.1-0.1-0.1-0.2-0.2-0.3c0-0.1-0.1-0.2-0.1-0.2c0,0,0,0,0,0c0,0,0,0,0.1,0
				c0.1,0,0.1,0,0.2,0c0.1,0,0.1,0,0.2,0c0.1,0,0.1,0,0.1,0c0,0,0-0.1,0.1-0.2c0-0.1,0-0.3,0.1-0.4c0-0.2,0-0.3,0.1-0.5
				c0-0.2,0-0.3,0-0.4c0,0,0-0.1,0-0.1c0-0.1-0.1-0.2-0.1-0.3c0-0.1-0.1-0.2-0.1-0.3c0-0.1,0-0.2-0.1-0.2c0,0,0,0,0-0.1
				c0,0,0.2-0.1,0.4-0.2c0.2-0.1,0.5-0.2,0.8-0.3c0.3-0.1,0.6-0.2,0.9-0.3c0.3-0.1,0.6-0.2,0.8-0.2c0,0,0.1,0,0.1,0c0,0,0,0.1,0,0.2
				c0,0.1-0.1,0.2-0.1,0.3c0,0.1-0.1,0.2-0.1,0.3c0,0.1,0,0.2,0,0.2c0,0.1,0,0.2,0,0.5c0,0.2,0.1,0.5,0.1,0.9c0,0.3,0.1,0.7,0.1,1.1
				c0,0.4,0.1,0.7,0.1,1.1c0,0.3,0.1,0.6,0.1,0.9C17.6,9.3,17.6,9.4,17.7,9.5z M16,4.7C16,4.7,15.9,4.7,16,4.7c-0.1,0-0.1,0-0.2,0
				c0,0-0.1,0-0.1,0.1c0,0-0.1,0.1-0.1,0.2c0,0.1-0.1,0.2-0.1,0.4c0,0.1-0.1,0.3-0.2,0.5c-0.1,0.2-0.1,0.3-0.1,0.5
				c0,0.2-0.1,0.3-0.1,0.4c0,0.1,0,0.2,0,0.2c0,0,0,0,0,0c0,0,0.1,0,0.2,0c0.1,0,0.2,0,0.3,0l0.3,0c0.1,0,0.2,0,0.3,0
				c0.1,0,0.1,0,0.1-0.1v0c0,0,0,0,0,0c0,0,0,0,0,0c0-0.1,0-0.2,0-0.3c0-0.1,0-0.3-0.1-0.4c0-0.2-0.1-0.3-0.1-0.5
				c0-0.2-0.1-0.3-0.1-0.5C16,5,16,4.9,16,4.8C16,4.7,16,4.7,16,4.7z"/>
			<path class="st1" d="M18.4,4c0,0,0-0.1,0.1-0.2c0.1-0.1,0.2-0.2,0.3-0.3c0.1-0.1,0.3-0.2,0.4-0.3c0.2-0.1,0.3-0.2,0.5-0.3
				c0.2-0.1,0.3-0.1,0.4-0.2c0.1-0.1,0.2-0.1,0.2-0.1c0,0,0.1,0,0.1,0c0,0,0.1,0,0.1,0c0,0,0.1,0,0.1,0c0,0,0,0,0,0.1c0,0,0,0,0,0.1
				c-0.1,0.1-0.2,0.2-0.4,0.3c-0.1,0.1-0.2,0.2-0.4,0.3c-0.1,0.1-0.2,0.2-0.3,0.3C19.6,4,19.6,4,19.6,4.1c0,0.1-0.1,0.2-0.1,0.4
				c0,0.2,0,0.4-0.1,0.6c0,0.2,0,0.4,0,0.6c0,0.2,0,0.3,0,0.4c0,0,0,0.1,0.1,0.1c0.1,0,0.3,0,0.4-0.1c0.1,0,0.2,0,0.4,0
				c0,0,0.1,0,0.1,0c0,0,0,0,0,0.1c0,0-0.1,0.1-0.1,0.2c0,0.1-0.1,0.1-0.1,0.2c0,0.1-0.1,0.1-0.1,0.1c0,0-0.1,0.1-0.1,0.1
				c-0.1,0-0.1,0-0.2,0c-0.1,0-0.2,0-0.2,0c0,0,0,0-0.1,0c0,0,0,0,0,0.1c0,0.1,0,0.4,0,0.7c0,0.3,0,0.6,0,1c0,0.4,0,0.7,0,1
				c0,0.3,0,0.6,0,0.8c0,0.2,0,0.2,0,0.3c0,0-0.1,0.1-0.2,0.2C19.2,11,19,11,18.9,11.1c-0.1,0.1-0.3,0.2-0.4,0.2
				c-0.1,0.1-0.2,0.1-0.3,0.1c0,0-0.1,0-0.1,0c0,0,0-0.1,0-0.2c0-0.1,0-0.2,0.1-0.3c0-0.1,0.1-0.2,0.1-0.3c0-0.1,0.1-0.2,0.1-0.3
				c0,0,0,0,0-0.1c0,0,0,0,0-0.1c0,0,0-0.1,0-0.2c0-0.1,0-0.3,0-0.5c0-0.2,0-0.4,0.1-0.7c0-0.2,0-0.5,0.1-0.7c0-0.2,0-0.4,0-0.6
				c0-0.2,0-0.3,0-0.4c0,0,0,0,0,0c0,0-0.1,0-0.1,0c0,0-0.1,0-0.1,0c0,0-0.1,0-0.1,0c-0.1,0-0.1,0-0.1-0.1V6.8c0-0.1,0-0.2,0-0.2
				c0-0.1,0-0.1,0-0.2c0,0,0-0.1,0.1-0.1l0.3,0c0,0,0.1,0,0.1-0.1V4.9c0-0.1,0-0.1,0-0.2c0,0,0-0.1-0.1-0.1c0-0.1-0.1-0.2-0.1-0.2
				c0-0.1-0.1-0.2-0.1-0.3C18.4,4.1,18.4,4,18.4,4z"/>
			<path class="st1" d="M22.3,6.2c0,0-0.1,0.1-0.1,0.2c-0.1,0.1-0.1,0.2-0.2,0.4s-0.1,0.4-0.2,0.5c-0.1,0.2-0.1,0.4-0.2,0.6
				c-0.1,0.2-0.1,0.4-0.1,0.5c0,0.2,0,0.3,0,0.3c0,0,0,0.1,0,0.1c0,0.1,0,0.2,0,0.3c0,0.1,0,0.2,0,0.3c0,0.1,0,0.2,0,0.2
				c0,0.1,0,0.1,0,0.1c0,0-0.1,0.1-0.1,0.1c-0.1,0.1-0.2,0.1-0.3,0.2c-0.1,0.1-0.2,0.1-0.3,0.1c-0.1,0-0.2,0.1-0.2,0.1
				c-0.1,0-0.1,0-0.1-0.2c0-0.5,0-1.1,0.1-1.6c0.1-0.6,0.1-1.1,0.1-1.7c0,0,0-0.1-0.1-0.2c-0.1-0.1-0.1-0.2-0.2-0.3
				c-0.1-0.1-0.1-0.2-0.2-0.4c-0.1-0.1-0.1-0.2-0.1-0.2c0,0,0,0,0,0c0,0,0,0,0.1,0c0.1,0,0.2,0,0.3,0c0.1,0,0.2,0,0.4,0.1
				c0.1,0,0.2,0.1,0.3,0.1c0.1,0,0.1,0.1,0.2,0.1c0,0.1,0,0.2,0,0.3c0,0.2,0,0.3,0,0.5v0.4c0,0,0,0,0,0c0,0,0,0,0,0c0,0,0,0,0,0
				c0.1-0.2,0.2-0.5,0.3-0.7c0.1-0.2,0.2-0.4,0.3-0.6c0.1-0.2,0.3-0.4,0.4-0.5c0.1-0.1,0.2-0.2,0.3-0.2c0.1,0,0.1,0,0.2,0.2
				s0.1,0.3,0.2,0.4c0.1,0.2,0.1,0.4,0.1,0.6c0,0.1,0,0.2-0.1,0.2c0,0-0.1,0-0.1,0c-0.1,0-0.1-0.1-0.2-0.1c-0.1,0-0.1-0.1-0.2-0.1
				C22.5,6.3,22.4,6.2,22.3,6.2z"/>
			<path class="st1" d="M24.7,9.5C24.7,9.5,24.6,9.5,24.7,9.5c-0.1,0.1-0.2,0.1-0.2,0.2c-0.1,0-0.2,0.1-0.3,0.1
				c-0.1,0-0.2,0.1-0.3,0.1c-0.1,0-0.2,0-0.3,0c-0.1,0-0.1,0-0.1,0c0,0,0,0,0,0c0,0,0-0.1,0-0.2c0-0.1,0-0.2,0.1-0.3
				c0-0.1,0.1-0.2,0.1-0.4c0-0.1,0-0.2,0.1-0.3c0,0,0-0.1,0-0.2c0-0.1,0-0.2,0-0.4c0-0.1,0-0.3,0-0.5c0-0.2,0-0.3,0-0.5
				c0-0.1,0-0.3,0-0.4c0-0.1,0-0.2,0-0.2c0,0,0-0.1-0.1-0.2c0-0.1-0.1-0.1-0.1-0.2c0-0.1-0.1-0.1-0.1-0.2c0-0.1-0.1-0.1-0.1-0.1
				c0,0,0.1-0.1,0.2-0.1c0.1-0.1,0.2-0.1,0.4-0.2c0.2-0.1,0.3-0.1,0.4-0.2c0.1,0,0.2-0.1,0.3-0.1c0,0,0.1,0,0.1,0.1
				c0,0.1,0,0.3,0,0.5c0,0.2,0,0.5-0.1,0.7c0,0.3,0,0.5-0.1,0.8c0,0.3,0,0.5,0,0.8c0,0.1,0,0.2,0,0.3c0,0.1,0,0.3,0.1,0.4
				c0,0.1,0,0.2,0.1,0.4C24.6,9.4,24.7,9.4,24.7,9.5z M23.7,4.7C23.7,4.7,23.7,4.7,23.7,4.7c-0.1,0-0.1-0.1-0.1-0.1c0,0,0-0.1,0-0.1
				c0,0,0-0.1,0-0.2c0-0.1,0-0.2,0-0.3c0-0.1,0-0.1,0-0.1c0,0,0.1-0.1,0.1-0.1c0.1-0.1,0.2-0.1,0.3-0.2c0.1-0.1,0.2-0.1,0.3-0.1
				c0.1,0,0.2-0.1,0.2-0.1c0,0,0,0,0,0c0,0,0,0,0,0.1c0,0,0,0.1,0,0.1v0.2c0,0.1,0,0.1,0,0.1c0,0,0,0.1,0,0.1c0,0,0.1,0.1,0.1,0.1
				c0,0,0,0.1,0.1,0.1c0,0,0,0.1,0,0.1c0,0,0,0,0,0c0,0-0.1,0.1-0.1,0.1c-0.1,0-0.2,0.1-0.3,0.1c-0.1,0-0.2,0.1-0.3,0.1
				C23.9,4.7,23.8,4.7,23.7,4.7z"/>
			<path class="st1" d="M25.3,9.6C25.2,9.6,25.2,9.6,25.3,9.6c-0.1-0.2-0.1-0.3,0-0.5c0-0.2,0-0.4,0.1-0.6c0-0.2,0.1-0.4,0.1-0.5
				c0-0.2,0-0.3,0-0.3c0-0.1,0-0.2,0-0.4s0-0.5,0-0.8c0-0.3,0-0.7,0-1c0-0.4,0-0.7,0-1c0-0.3,0-0.6,0-0.8c0-0.2,0-0.4-0.1-0.4
				c0,0,0-0.1-0.1-0.1c0-0.1-0.1-0.2-0.2-0.3c-0.1-0.1-0.1-0.2-0.1-0.3c0-0.1-0.1-0.2-0.1-0.2c0,0,0,0,0,0c0.1,0,0.2,0,0.3,0
				c0.2,0,0.3,0.1,0.5,0.1c0.2,0.1,0.3,0.1,0.4,0.2c0.1,0.1,0.2,0.1,0.2,0.2c0,0,0,0.1,0,0.2c0,0.1,0,0.3,0,0.5c0,0.2,0,0.4,0,0.6
				c0,0.2,0,0.4,0,0.6c0,0.2,0,0.4,0,0.5c0,0.1,0,0.2,0,0.3c0,0.1,0,0.2,0,0.3c0,0.1,0,0.2,0,0.3c0,0.1,0,0.2,0,0.4
				c0,0.1,0,0.2,0,0.4c0,0.1,0,0.1,0,0.2s0,0.1,0,0.2v0c0,0,0,0,0,0c0,0,0,0,0,0c0.1-0.2,0.3-0.5,0.4-0.6c0.1-0.2,0.2-0.3,0.3-0.5
				C26.9,6,27,5.9,27,5.8c0-0.1,0-0.1,0-0.2c0-0.1,0-0.1-0.1-0.2c0-0.1-0.1-0.1-0.1-0.2c0,0,0-0.1,0-0.1c0,0,0.1-0.1,0.2-0.1
				C27.1,5,27.2,5,27.4,4.9c0.2-0.1,0.4-0.1,0.6-0.2c0.2-0.1,0.3-0.1,0.5-0.1c0,0,0,0,0,0c0,0,0,0,0,0c0,0,0,0,0,0
				C28.2,5,28,5.2,27.8,5.5c-0.1,0.1-0.1,0.2-0.2,0.3c-0.1,0.1-0.1,0.2-0.2,0.3c-0.1,0.1-0.1,0.2-0.1,0.2c0,0.1-0.1,0.1-0.1,0.1
				c0,0,0,0.2,0.1,0.3c0.1,0.2,0.2,0.4,0.3,0.6c0.1,0.2,0.2,0.4,0.3,0.6c0.1,0.2,0.2,0.3,0.2,0.4c0,0,0.1,0,0.1,0.1
				c0.1,0,0.1,0,0.2,0.1c0.1,0,0.1,0.1,0.2,0.1c0,0,0.1,0,0.1,0.1c0,0,0,0.1-0.1,0.2c-0.1,0.1-0.2,0.2-0.3,0.3
				c-0.1,0.1-0.2,0.2-0.3,0.3c-0.1,0.1-0.2,0.1-0.3,0.1c0,0,0,0-0.1,0c0,0-0.1-0.1-0.1-0.2c0-0.1-0.1-0.2-0.1-0.4
				c-0.1-0.2-0.1-0.3-0.2-0.5C27.1,8.2,27,8,27,7.9c-0.1-0.1-0.1-0.3-0.1-0.4c0-0.1-0.1-0.2-0.1-0.2c0,0,0,0,0,0c0,0,0,0-0.1,0
				c0,0-0.1,0.1-0.1,0.2c-0.1,0.1-0.1,0.2-0.2,0.3C26.3,7.9,26.2,8,26.2,8c0,0.1-0.1,0.1-0.1,0.2c0,0.1,0,0.2,0,0.3
				c0,0.1,0,0.2,0,0.3c0,0.1,0,0.2,0,0.3c0,0.1,0,0.1,0,0.2c0,0,0,0.1,0,0.1c0,0-0.1,0.1-0.2,0.1c-0.1,0-0.2,0.1-0.3,0.1
				c-0.1,0-0.2,0.1-0.3,0.1C25.4,9.6,25.3,9.6,25.3,9.6z"/>
			<path class="st1" d="M14.1,13.5c0,0,0-0.1-0.1-0.3c-0.1-0.1-0.1-0.3-0.2-0.5c-0.1-0.2-0.1-0.3-0.2-0.5c-0.1-0.2-0.1-0.3-0.1-0.3
				c0,0,0,0,0-0.1c0,0,0.1-0.1,0.2-0.1c0.1,0,0.2-0.1,0.4-0.1c0.1,0,0.3-0.1,0.5-0.1c0.2,0,0.3-0.1,0.5-0.1c0.1,0,0.3,0,0.4-0.1
				c0.1,0,0.2,0,0.2,0c0.1,0,0.2,0,0.3,0c0.1,0,0.2,0,0.3,0c0.1,0,0.2,0,0.3,0c0.1,0,0.2,0,0.2,0c0,0,0.1,0,0.2,0.1
				c0.1,0,0.3,0.1,0.4,0.2c0.1,0.1,0.3,0.1,0.4,0.2c0.1,0.1,0.2,0.1,0.2,0.2c0,0.1,0,0.1,0,0.2c0,0.1,0,0.1-0.1,0.2
				c0,0.1-0.1,0.1-0.1,0.2c0,0.1-0.1,0.1-0.1,0.1c-0.1,0.1-0.1,0.2-0.3,0.3c-0.1,0.1-0.3,0.3-0.4,0.4c-0.2,0.1-0.3,0.3-0.5,0.4
				c-0.2,0.1-0.3,0.2-0.4,0.3c0,0,0,0,0,0c0,0,0,0,0,0c0,0,0,0,0,0c0,0,0,0,0,0c0.3,0.1,0.5,0.2,0.7,0.2c0.2,0.1,0.4,0.1,0.5,0.2
				c0.2,0.1,0.3,0.1,0.3,0.2c0,0,0.1,0.1,0.2,0.2c0.1,0.1,0.1,0.2,0.1,0.4c0,0.1,0.1,0.3,0.1,0.4c0,0.1,0,0.2,0,0.2
				c0,0,0,0.1-0.1,0.2c0,0.1-0.1,0.2-0.1,0.3c-0.1,0.1-0.1,0.2-0.2,0.4c-0.1,0.1-0.1,0.2-0.2,0.2c-0.1,0.1-0.2,0.2-0.5,0.4
				c-0.3,0.2-0.6,0.3-0.9,0.5c-0.4,0.2-0.7,0.3-1.1,0.4c-0.4,0.1-0.8,0.2-1.1,0.3c-0.1,0-0.1,0-0.1,0c0,0,0-0.1,0-0.2
				c0-0.1,0-0.3,0-0.6c0-0.3,0-0.5,0.1-0.9c0-0.3,0.1-0.7,0.1-1c0-0.4,0.1-0.7,0.1-1c0-0.3,0-0.6,0.1-0.9
				C14,13.9,14.1,13.6,14.1,13.5z M16.9,15.4c0-0.1-0.1-0.2-0.3-0.3c-0.1-0.1-0.3-0.2-0.5-0.3c-0.2-0.1-0.4-0.2-0.5-0.3
				c-0.2-0.1-0.3-0.1-0.4-0.1c0,0,0,0,0-0.1c0-0.1,0-0.1,0-0.2c0-0.1,0-0.1,0.1-0.1c0,0,0.1,0,0.1-0.1c0.1,0,0.1-0.1,0.2-0.2
				c0.1-0.1,0.1-0.1,0.2-0.2c0.1-0.1,0.1-0.1,0.1-0.1c0.1-0.1,0.1-0.1,0.2-0.2c0.1-0.1,0.1-0.2,0.2-0.3c0.1-0.1,0.1-0.2,0.1-0.3
				c0-0.1,0.1-0.2,0.1-0.2c0,0,0-0.1-0.1-0.1c0,0-0.1-0.1-0.2-0.1c-0.1,0-0.1-0.1-0.2-0.1c-0.1,0-0.1-0.1-0.2-0.1
				c-0.1,0-0.2,0-0.3,0c-0.2,0-0.3,0-0.4,0C15,12,15,12,15,12c0,0,0,0.1,0,0.3c0,0.2,0,0.3,0,0.6c0,0.2,0,0.5-0.1,0.7
				c0,0.3,0,0.5,0,0.7c0,0.2,0,0.4,0,0.6c0,0.2,0,0.3,0,0.3c0,0,0,0.1,0,0.2c0,0.1,0,0.3,0,0.5c0,0.2,0,0.4,0.1,0.6
				c0,0.2,0,0.4,0.1,0.6c0,0.2,0,0.3,0.1,0.5c0,0.1,0,0.2,0.1,0.2c0,0,0.1,0,0.2,0c0.1,0,0.1,0,0.2,0c0.1,0,0.2,0,0.2-0.1
				c0.1,0,0.2,0,0.2-0.1c0.1,0,0.1,0,0.1-0.1c0.1-0.1,0.3-0.3,0.4-0.4c0.1-0.2,0.2-0.4,0.3-0.6c0.1-0.2,0.1-0.4,0.2-0.5
				c0-0.2,0.1-0.3,0.1-0.4C16.9,15.5,16.9,15.5,16.9,15.4C16.9,15.4,16.9,15.4,16.9,15.4z"/>
			<path class="st1" d="M20.1,14.1c0,0-0.1,0.1-0.1,0.2c-0.1,0.1-0.1,0.2-0.2,0.4s-0.1,0.4-0.2,0.5c-0.1,0.2-0.1,0.4-0.2,0.6
				c-0.1,0.2-0.1,0.4-0.1,0.5c0,0.2,0,0.3,0,0.3c0,0,0,0.1,0,0.1c0,0.1,0,0.2,0,0.3c0,0.1,0,0.2,0,0.3c0,0.1,0,0.2,0,0.2
				c0,0.1,0,0.1,0,0.1c0,0-0.1,0.1-0.1,0.1C19.1,17.9,19,18,18.9,18c-0.1,0.1-0.2,0.1-0.3,0.1c-0.1,0-0.2,0.1-0.2,0.1
				c-0.1,0-0.1,0-0.1-0.2c0-0.5,0-1.1,0.1-1.6c0.1-0.6,0.1-1.1,0.1-1.7c0,0,0-0.1-0.1-0.2c-0.1-0.1-0.1-0.2-0.2-0.3
				C18.1,14.1,18,14,18,13.9c-0.1-0.1-0.1-0.2-0.1-0.2c0,0,0,0,0,0c0,0,0,0,0.1,0c0.1,0,0.2,0,0.3,0c0.1,0,0.2,0,0.4,0.1
				c0.1,0,0.2,0.1,0.3,0.1c0.1,0,0.1,0.1,0.2,0.1c0,0.1,0,0.2,0,0.3c0,0.2,0,0.3,0,0.5v0.4c0,0,0,0,0,0c0,0,0,0,0,0c0,0,0,0,0,0
				c0.1-0.2,0.2-0.5,0.3-0.7c0.1-0.2,0.2-0.4,0.3-0.6c0.1-0.2,0.3-0.4,0.4-0.5c0.1-0.1,0.2-0.2,0.3-0.2c0.1,0,0.1,0,0.2,0.2
				c0.1,0.1,0.1,0.3,0.2,0.4c0.1,0.2,0.1,0.4,0.1,0.6c0,0.1,0,0.2-0.1,0.2c0,0-0.1,0-0.1,0c-0.1,0-0.1-0.1-0.2-0.1
				c-0.1,0-0.1-0.1-0.2-0.1C20.3,14.1,20.2,14.1,20.1,14.1z"/>
			<path class="st1" d="M22.4,17.3C22.4,17.4,22.4,17.4,22.4,17.3c-0.1,0.1-0.2,0.1-0.2,0.2c-0.1,0-0.2,0.1-0.3,0.1
				c-0.1,0-0.2,0.1-0.3,0.1c-0.1,0-0.2,0-0.3,0c-0.1,0-0.1,0-0.1,0c0,0,0,0,0,0c0,0,0-0.1,0-0.2c0-0.1,0-0.2,0.1-0.3
				c0-0.1,0.1-0.2,0.1-0.4c0-0.1,0-0.2,0.1-0.3c0,0,0-0.1,0-0.2c0-0.1,0-0.2,0-0.4c0-0.1,0-0.3,0-0.5c0-0.2,0-0.3,0-0.5
				c0-0.1,0-0.3,0-0.4c0-0.1,0-0.2,0-0.2c0,0,0-0.1-0.1-0.2c0-0.1-0.1-0.1-0.1-0.2c0-0.1-0.1-0.1-0.1-0.2c0-0.1-0.1-0.1-0.1-0.1
				c0,0,0.1-0.1,0.2-0.1c0.1-0.1,0.2-0.1,0.4-0.2c0.2-0.1,0.3-0.1,0.4-0.2c0.1,0,0.2-0.1,0.3-0.1c0,0,0.1,0,0.1,0.1
				c0,0.1,0,0.3,0,0.5c0,0.2,0,0.5-0.1,0.7c0,0.3-0.1,0.5-0.1,0.8c0,0.3,0,0.5,0,0.8c0,0.1,0,0.2,0,0.3c0,0.1,0,0.3,0.1,0.4
				c0,0.1,0,0.2,0.1,0.4C22.4,17.2,22.4,17.3,22.4,17.3z M21.5,12.6C21.5,12.6,21.5,12.6,21.5,12.6c-0.1,0-0.1-0.1-0.1-0.1
				c0,0,0-0.1,0-0.1c0,0,0-0.1,0-0.2c0-0.1,0-0.2,0-0.3c0-0.1,0-0.1,0-0.1c0,0,0.1-0.1,0.1-0.1c0.1-0.1,0.2-0.1,0.3-0.2
				c0.1-0.1,0.2-0.1,0.3-0.1c0.1,0,0.2-0.1,0.2-0.1c0,0,0,0,0,0c0,0,0,0,0,0.1c0,0,0,0.1,0,0.1v0.2c0,0.1,0,0.1,0,0.1
				c0,0,0,0.1,0,0.1c0,0,0.1,0.1,0.1,0.1c0,0,0.1,0.1,0.1,0.1c0,0,0,0.1,0,0.1c0,0,0,0,0,0c0,0-0.1,0.1-0.1,0.1
				c-0.1,0-0.2,0.1-0.3,0.1c-0.1,0-0.2,0.1-0.3,0.1C21.7,12.5,21.6,12.6,21.5,12.6z"/>
			<path class="st1" d="M23.9,17.9c0,0-0.1,0-0.1-0.1c-0.1-0.1-0.1-0.1-0.2-0.2c-0.1-0.1-0.1-0.2-0.2-0.2c-0.1-0.1-0.1-0.2-0.1-0.2
				c0,0,0-0.1,0-0.1c0,0,0,0,0-0.1c0-0.2,0-0.5,0-0.8c0-0.3,0-0.6,0.1-0.9c0-0.3,0.1-0.6,0.1-0.8c0-0.2,0-0.4,0-0.5c0,0,0,0-0.1,0
				c-0.1,0-0.1,0-0.2,0c0,0-0.1,0-0.2,0c0,0,0,0,0-0.1c0,0,0-0.1,0-0.1c0-0.1,0-0.1,0-0.2c0-0.1,0-0.2,0-0.2c0-0.1,0-0.1,0-0.1
				c0,0,0,0,0.1,0l0.3,0c0,0,0,0,0,0c0,0,0-0.1,0-0.1c0-0.1,0-0.1,0-0.2v-0.2c0-0.1,0-0.1,0-0.2c0-0.1,0-0.1,0-0.2
				c0,0,0-0.1-0.1-0.2c0-0.1-0.1-0.2-0.1-0.4c-0.1-0.1-0.1-0.3-0.1-0.4c0-0.1-0.1-0.2-0.1-0.3c0,0,0,0,0,0c0.1,0,0.2,0,0.3,0
				c0.1,0,0.3,0.1,0.4,0.1c0.1,0.1,0.3,0.1,0.4,0.2c0.1,0.1,0.2,0.1,0.2,0.2c0,0.3,0,0.5-0.1,0.8c-0.1,0.3-0.1,0.5-0.1,0.8
				c0,0,0,0,0.1,0c0,0,0.1,0,0.1,0c0.1,0,0.1,0,0.2,0c0.1,0,0.1,0,0.2,0c0,0,0.1,0,0.1,0c0,0,0.1,0,0.1,0c0,0,0,0,0,0.1
				c0,0,0,0.1-0.1,0.1c0,0.1-0.1,0.1-0.1,0.2c0,0.1,0,0.1-0.1,0.2c0,0,0,0.1,0,0.1c0,0,0,0.1,0,0.1c0,0,0,0-0.1,0
				c-0.1,0-0.1,0-0.2,0c-0.1,0-0.1,0-0.1,0c0,0-0.1,0-0.1,0.1c0,0.2,0,0.4,0,0.7c0,0.2,0,0.4,0,0.7c0,0.2,0,0.5,0,0.7
				c0,0.2,0,0.4,0.1,0.5c0,0.1,0,0.2,0.1,0.2c0,0,0,0.1,0.1,0.1c0,0,0.1,0.1,0.2,0.1c0.1,0,0.1,0,0.2,0.1c0.1,0,0.1,0,0.1,0
				c0,0,0.1,0,0.1,0c0,0,0,0,0,0.1c0,0-0.1,0.1-0.2,0.2c-0.1,0.1-0.2,0.2-0.3,0.2c-0.1,0.1-0.2,0.2-0.3,0.2
				C24,17.9,23.9,17.9,23.9,17.9z"/>
			<path class="st1" d="M27.1,16.8c0,0-0.1,0.1-0.2,0.1c-0.1,0-0.2,0.1-0.4,0.1c-0.2,0-0.3,0.1-0.5,0.1c-0.2,0-0.3,0.1-0.5,0.1
				c-0.1,0-0.2,0-0.3,0c-0.1,0-0.1,0-0.2,0c0,0,0,0,0-0.1c0,0,0-0.1,0-0.1c0-0.3,0-0.6,0-0.8c0-0.3,0.1-0.6,0.2-0.9
				c0,0,0.1-0.1,0.1-0.1c0,0,0.1,0,0.1,0c0,0,0.1,0,0.1,0c0,0,0,0,0,0c0,0.1,0,0.1,0.1,0.3c0,0.1,0.1,0.2,0.1,0.4
				c0,0.1,0.1,0.2,0.1,0.3c0,0.1,0.1,0.2,0.1,0.2c0.1,0.1,0.2,0.1,0.3,0.1c0.1,0,0.2,0,0.3,0c0,0,0.1,0,0.1,0c0,0,0.1,0,0.1,0
				c0.1-0.1,0.1-0.1,0.1-0.2c0-0.1,0-0.2,0-0.3c0-0.3-0.1-0.6-0.3-0.8c-0.2-0.2-0.4-0.4-0.6-0.5c-0.2-0.1-0.4-0.3-0.6-0.3
				c-0.2-0.1-0.3-0.1-0.3-0.2c0-0.1,0-0.1,0-0.2c0-0.1,0.1-0.2,0.1-0.3c0-0.1,0.1-0.2,0.1-0.3c0.1-0.1,0.1-0.2,0.1-0.2
				c0,0,0.1-0.1,0.2-0.1c0.1-0.1,0.2-0.1,0.4-0.2c0.2-0.1,0.3-0.1,0.5-0.2c0.2-0.1,0.4-0.1,0.6-0.1c0,0,0,0,0.1,0
				c0,0,0.1,0.1,0.1,0.1c0,0.1,0,0.1,0,0.1c0,0,0,0-0.1,0.1c-0.1,0-0.2,0.1-0.3,0.2c-0.1,0.1-0.3,0.2-0.4,0.3
				c-0.1,0.1-0.3,0.2-0.4,0.3c-0.1,0.1-0.2,0.2-0.2,0.2c0,0,0,0,0,0.1c0,0.1,0,0.1,0,0.2c0,0,0,0.1,0.1,0.1c0.1,0,0.2,0.1,0.4,0.2
				c0.2,0.1,0.3,0.2,0.5,0.3c0.2,0.1,0.3,0.2,0.4,0.3c0.1,0.1,0.2,0.2,0.2,0.3c0,0,0,0.1,0,0.2c0,0.1-0.1,0.2-0.1,0.4
				c-0.1,0.1-0.1,0.3-0.2,0.5C27.3,16.5,27.2,16.6,27.1,16.8z"/>
		</g>
		<path class="st1" d="M29.4,11.2c-1,0.1-2,0.2-2.9,0.3c-0.3,0-0.7-0.2-0.7-0.3c0-0.4,0.3-0.6,0.7-0.6c1.3-0.3,2.5-0.5,3.8-0.8
			c1,2.8,0.3,8.5-4.8,11.8c0,0,0,0.1,0,0.1c0.8,0.8,0.8,1-0.3,1.4c-1.4,0.6-2.8,0.8-4.3,0.9c-0.5,0-1,0.1-1.5,0.1c-1,0-1,0-0.9-0.9
			c-5-0.9-8.2-3.9-9.4-9c1.3-0.3,1.4-0.3,2.5-0.6c0.4-0.1,0.9-0.3,1.4-0.3c0.2,0,0.5,0.2,0.5,0.3c0.1,0.1,0,0.6-0.1,0.6
			c-0.3,0.2-0.6,0.2-1,0.3c-0.8,0.2-0.8,0.2-1.6,0.4c-0.4,0.1-0.5,0.2-0.3,0.6c1.8,4.2,5.6,6.9,10.7,6.4c2.7-0.3,5-1.4,6.5-3.8
			c1.3-2,1.8-4.2,1.8-6.6C29.4,11.4,29.4,11.3,29.4,11.2z"/>
		<path class="st1" d="M29.2,8.9c1.6-2.1,3.1-4.2,4.6-6.3c0.3-0.4,1-0.2,1.1,0.2c0,0.1-0.1,0.3-0.2,0.5c-0.9,1-1.7,2-2.6,3
			c-0.8,0.9-1.6,1.7-2.4,2.6C29.7,9.1,29.5,9.3,29.2,8.9z"/>
		<path class="st1" d="M29.3,7.5c0.5-1.2,0.9-2.3,1.4-3.4c0.4-0.9,0.8-1.8,1.2-2.7c0.2-0.4,0.7-0.5,1-0.1c0.1,0.1,0,0.3,0,0.4
			c-0.7,1.3-1.4,2.6-2.1,3.9c-0.3,0.6-0.7,1.2-1,1.8c-0.1,0.1-0.2,0.2-0.4,0.3C29.4,7.5,29.4,7.5,29.3,7.5z"/>
		<g>
			<path class="st1" d="M18.5,20.1C18.5,20.1,18.5,20.1,18.5,20.1C18.6,20.1,18.6,20.1,18.5,20.1C18.6,20.1,18.6,20.1,18.5,20.1
				c0.1,0.1,0.1,0.1,0.1,0.2c0,0.1,0,0.1,0,0.2c0,0.1,0,0.1,0,0.1c0,0,0,0.1,0,0.1c0,0,0,0-0.1,0c0,0-0.1,0-0.1,0
				c-0.1,0-0.1,0-0.2,0c0,0-0.1,0-0.1,0c-0.1,0-0.1-0.1-0.2-0.1c-0.1,0-0.1-0.1-0.2-0.1c0,0-0.1-0.1-0.1-0.1c0,0,0,0,0-0.1
				c0,0,0-0.1,0-0.1c0,0,0-0.1,0-0.1c0,0,0-0.1,0-0.1c0,0,0-0.1,0-0.1c0,0,0-0.1,0-0.1c0-0.1,0.1-0.3,0.1-0.4
				c0.1-0.1,0.1-0.2,0.2-0.3C17.9,19.1,18,19,18,19c0.1,0,0.1-0.1,0.1-0.1c0,0,0.1,0,0.1,0c0,0,0.1,0.1,0.1,0.1c0,0,0.1,0.1,0.1,0.1
				c0,0,0.1,0.1,0.1,0.1c0,0,0,0,0,0c0,0,0,0,0,0c0,0,0,0,0,0c0,0,0,0,0,0c0,0-0.1,0-0.1,0c0,0-0.1,0-0.1,0c0,0-0.1,0-0.1,0
				c0,0-0.1,0-0.1,0c0,0-0.1,0-0.1,0c0,0-0.1,0.1-0.1,0.1c0,0.1-0.1,0.1-0.1,0.2c0,0.1,0,0.1-0.1,0.2c0,0.1,0,0.1,0,0.1
				c0,0,0,0.1,0,0.1c0,0.1,0,0.1,0.1,0.2c0,0.1,0.1,0.1,0.1,0.2s0.1,0.1,0.1,0.1c0,0,0,0,0,0c0,0,0,0,0.1,0c0,0,0,0,0,0
				c0,0,0,0,0.1-0.1c0,0,0.1-0.1,0.1-0.1c0,0,0.1-0.1,0.1-0.2C18.5,20.2,18.5,20.1,18.5,20.1z"/>
			<path class="st1" d="M19.8,20.7C19.8,20.7,19.8,20.7,19.8,20.7C19.8,20.7,19.8,20.7,19.8,20.7c0,0.1,0,0.1-0.1,0.1
				c0,0,0,0-0.1,0.1c0,0,0,0,0,0c0,0,0,0,0,0c0,0,0,0,0,0c0,0,0,0,0-0.1c0,0,0,0,0,0l0,0c0,0,0,0,0,0c0,0,0,0,0,0c0,0,0,0,0,0
				c0,0,0,0,0,0c0,0,0,0,0,0c0,0,0,0,0,0c0,0,0,0,0,0.1c0,0,0,0.1-0.1,0.1c0,0,0,0.1-0.1,0.1c0,0,0,0,0,0c0,0,0,0-0.1,0
				c0,0,0,0-0.1-0.1c0,0,0-0.1-0.1-0.1c0,0,0,0,0-0.1c0,0,0-0.1,0-0.1c0-0.1,0-0.1,0-0.2c0-0.1,0-0.1,0-0.2c0-0.1,0-0.1,0-0.1
				c0,0,0-0.1,0-0.1c0,0,0,0,0,0c0,0,0,0,0-0.1c0,0,0-0.1,0-0.1c0,0,0,0,0-0.1c0,0,0,0,0,0c0,0,0,0,0.1,0c0,0,0.1,0,0.1,0.1
				c0,0,0.1,0,0.1,0.1c0,0,0,0,0,0c0,0,0,0,0,0.1c0,0,0,0.1,0,0.1c0,0,0,0.1,0,0.1c0,0,0,0.1,0,0.1c0,0,0,0.1,0,0.1c0,0,0,0,0,0.1
				c0,0,0,0,0,0c0,0,0,0,0,0c0,0,0,0,0,0c0,0,0,0,0,0c0,0,0,0,0,0c0,0,0-0.1,0.1-0.1c0,0,0-0.1,0.1-0.1c0,0,0-0.1,0-0.1
				c0,0,0-0.1,0-0.1c0,0,0-0.1,0-0.1c0,0,0-0.1,0-0.1c0,0,0-0.1,0-0.1c0,0,0,0,0,0c0,0,0,0,0.1,0c0,0,0.1,0,0.1,0c0,0,0,0,0.1,0
				c0,0,0,0,0,0c0,0,0,0,0,0.1c0,0.1,0,0.1,0,0.2c0,0.1,0,0.2,0,0.2c0,0.1,0,0.1,0,0.2C19.7,20.6,19.7,20.6,19.8,20.7
				C19.7,20.6,19.7,20.6,19.8,20.7C19.7,20.6,19.8,20.6,19.8,20.7C19.8,20.6,19.8,20.7,19.8,20.7z"/>
			<path class="st1" d="M20.5,20.8C20.5,20.9,20.5,20.9,20.5,20.8C20.5,20.9,20.5,20.9,20.5,20.8c-0.1,0-0.1,0-0.1,0.1
				c0,0-0.1,0-0.1,0c0,0,0,0-0.1,0c0,0,0,0,0,0c0,0,0,0,0,0c0,0,0,0,0-0.1c0,0,0-0.1,0-0.1c0,0,0-0.1,0-0.1c0,0,0-0.1,0-0.1
				c0,0,0,0,0-0.1c0,0,0-0.1,0-0.1c0,0,0-0.1,0-0.1c0,0,0-0.1,0-0.1c0,0,0-0.1,0-0.1c0,0,0,0,0,0c0,0,0,0,0,0c0,0,0,0,0-0.1
				c0,0,0,0,0-0.1c0,0,0,0,0,0c0,0,0,0,0,0c0,0,0.1,0,0.1,0c0,0,0.1,0,0.1,0c0,0,0.1,0,0.1,0c0,0,0,0,0,0c0,0,0,0.1,0,0.1
				c0,0.1,0,0.1,0,0.2c0,0.1,0,0.1,0,0.2c0,0.1,0,0.1,0,0.2c0,0,0,0,0,0.1c0,0,0,0.1,0,0.1C20.5,20.7,20.5,20.8,20.5,20.8
				C20.5,20.8,20.5,20.8,20.5,20.8z M20.2,19.6C20.2,19.6,20.2,19.6,20.2,19.6C20.2,19.6,20.2,19.6,20.2,19.6
				C20.2,19.6,20.2,19.6,20.2,19.6c-0.1-0.1-0.1-0.1-0.1-0.1c0,0,0,0,0-0.1c0,0,0,0,0,0c0,0,0,0,0,0c0,0,0,0,0.1,0c0,0,0,0,0.1,0
				c0,0,0,0,0.1,0c0,0,0,0,0,0c0,0,0,0,0,0c0,0,0,0,0,0l0,0c0,0,0,0,0,0c0,0,0,0,0,0c0,0,0,0,0,0c0,0,0,0,0,0c0,0,0,0,0,0
				c0,0,0,0,0,0c0,0,0,0,0,0c0,0,0,0-0.1,0S20.3,19.6,20.2,19.6C20.3,19.6,20.2,19.6,20.2,19.6z"/>
			<path class="st1" d="M21.5,20.8C21.4,20.8,21.4,20.8,21.5,20.8c-0.1,0-0.1,0-0.2,0.1c0,0-0.1,0-0.1,0c0,0-0.1,0-0.1,0
				c0,0-0.1,0-0.1,0c0,0,0,0,0,0c0,0,0,0,0,0c0,0,0,0,0,0c0-0.1,0-0.1,0-0.2c0-0.1,0-0.1,0-0.2c0,0,0,0,0,0c0,0,0,0,0,0c0,0,0,0,0,0
				c0,0,0,0,0,0c0,0,0,0,0,0.1c0,0,0,0.1,0,0.1c0,0,0,0.1,0,0.1c0,0,0,0,0,0.1c0,0,0.1,0,0.1,0c0,0,0.1,0,0.1,0c0,0,0,0,0,0
				C21.3,20.7,21.3,20.7,21.5,20.8c-0.1-0.1-0.1-0.1-0.1-0.1c0,0,0,0,0-0.1c0-0.1,0-0.2-0.1-0.2c0-0.1-0.1-0.1-0.1-0.2
				c-0.1,0-0.1-0.1-0.1-0.1c0,0-0.1,0-0.1-0.1c0,0,0,0,0-0.1c0,0,0,0,0-0.1c0,0,0,0,0-0.1c0,0,0,0,0-0.1c0,0,0,0,0.1,0
				c0,0,0.1,0,0.1,0c0,0,0.1,0,0.1,0c0.1,0,0.1,0,0.2,0c0,0,0,0,0,0c0,0,0,0,0,0c0,0,0,0,0,0c0,0,0,0,0,0c0,0,0,0-0.1,0
				c0,0-0.1,0-0.1,0.1c0,0-0.1,0-0.1,0.1c0,0,0,0,0,0.1c0,0,0,0,0,0c0,0,0,0,0,0c0,0,0,0,0,0c0,0,0.1,0,0.1,0.1c0,0,0.1,0.1,0.1,0.1
				s0.1,0.1,0.1,0.1c0,0,0.1,0.1,0.1,0.1c0,0,0,0,0,0.1c0,0,0,0.1,0,0.1c0,0,0,0.1-0.1,0.1C21.5,20.7,21.5,20.7,21.5,20.8z"/>
			<path class="st1" d="M22.3,20.6C22.3,20.6,22.3,20.6,22.3,20.6C22.3,20.6,22.3,20.7,22.3,20.6c-0.1,0-0.1,0-0.1,0.1
				c0,0-0.1,0-0.1,0c0,0,0,0-0.1,0c0,0,0,0,0,0c0,0,0,0,0,0c0,0,0,0,0-0.1c0,0,0-0.1,0-0.1c0,0,0-0.1,0-0.1c0,0,0-0.1,0-0.1
				c0,0,0,0,0-0.1c0,0,0-0.1,0-0.1c0,0,0-0.1,0-0.1c0,0,0-0.1,0-0.1c0,0,0-0.1,0-0.1c0,0,0,0,0,0c0,0,0,0,0,0c0,0,0,0,0-0.1
				c0,0,0,0,0-0.1c0,0,0,0,0,0c0,0,0,0,0,0c0,0,0.1,0,0.1,0c0,0,0.1,0,0.1,0c0,0,0.1,0,0.1,0c0,0,0,0,0,0c0,0,0,0.1,0,0.1
				c0,0.1,0,0.1,0,0.2c0,0.1,0,0.1,0,0.2c0,0.1,0,0.1,0,0.2c0,0,0,0,0,0.1c0,0,0,0.1,0,0.1C22.3,20.5,22.3,20.5,22.3,20.6
				C22.3,20.6,22.3,20.6,22.3,20.6z M22,19.4C22,19.4,22,19.4,22,19.4C22,19.4,22,19.4,22,19.4C22,19.3,22,19.3,22,19.4
				C22,19.3,22,19.3,22,19.3c0,0,0,0,0-0.1c0,0,0,0,0,0c0,0,0,0,0,0c0,0,0,0,0.1,0c0,0,0,0,0.1,0c0,0,0,0,0.1,0c0,0,0,0,0,0
				c0,0,0,0,0,0c0,0,0,0,0,0l0,0c0,0,0,0,0,0c0,0,0,0,0,0c0,0,0,0,0,0c0,0,0,0,0,0c0,0,0,0,0,0c0,0,0,0,0,0c0,0,0,0,0,0
				c0,0,0,0-0.1,0C22.1,19.4,22.1,19.4,22,19.4C22.1,19.4,22,19.4,22,19.4z"/>
			<path class="st1" d="M22.6,19.3C22.6,19.3,22.6,19.3,22.6,19.3C22.7,19.3,22.7,19.3,22.6,19.3c0.1,0,0.1,0,0.2,0c0,0,0,0,0.1,0
				c0,0,0,0,0,0c0,0,0,0,0,0c0,0,0,0,0,0.1l0,0.3c0,0,0,0,0,0c0,0,0,0,0,0c0,0,0-0.1,0.1-0.1c0-0.1,0-0.1,0.1-0.2
				c0-0.1,0.1-0.1,0.1-0.1c0,0,0-0.1,0.1-0.1c0,0,0,0,0.1,0c0,0,0.1,0,0.1,0.1c0,0,0.1,0,0.1,0.1c0,0,0,0,0,0.1l0,0c0,0,0,0.1,0,0.2
				c0,0.1,0,0.1,0,0.2c0,0.1,0,0.1,0,0.2c0,0.1,0,0.1,0,0.1l0,0c0,0,0,0,0,0l0,0c0,0,0,0,0,0.1c0,0,0,0,0,0.1c0,0,0,0,0,0.1
				c0,0,0,0,0,0c0,0,0,0,0,0c0,0,0,0-0.1,0c0,0-0.1,0-0.1,0c0,0-0.1,0-0.1,0c0,0,0,0,0,0c0,0,0,0,0,0c0,0,0,0,0,0c0,0,0,0,0,0
				c0,0,0,0,0,0c0,0,0,0,0,0c0,0,0,0,0,0c0,0,0-0.1,0-0.1c0,0,0-0.1,0-0.1c0-0.1,0-0.1,0-0.2c0,0,0-0.1,0-0.1c0,0,0-0.1,0-0.1
				c0,0,0,0,0,0c0,0,0,0,0,0c0,0,0,0,0,0c0,0,0,0.1,0,0.1c0,0,0,0.1-0.1,0.1c0,0.1,0,0.1,0,0.2c0,0,0,0.1,0,0.1c0,0,0,0.1,0,0.1
				c0,0,0,0,0,0.1c0,0,0,0.1,0,0.1c0,0,0,0.1,0,0.1c0,0,0,0,0,0.1c0,0,0,0,0,0c0,0,0,0,0,0c0,0,0,0-0.1,0c0,0-0.1,0-0.1,0
				c0,0-0.1,0-0.1,0c0,0,0,0,0,0c0,0,0,0,0-0.1c0,0,0-0.1,0-0.1c0,0,0-0.1,0-0.1c0,0,0-0.1,0-0.1c0,0,0-0.1,0-0.1c0,0,0-0.1,0-0.1
				c0,0,0,0,0-0.1c0,0,0-0.1,0-0.1C22.7,19.5,22.7,19.4,22.6,19.3C22.6,19.4,22.6,19.3,22.6,19.3z"/>
			<path class="st1" d="M23.8,19.7c0,0,0,0,0-0.1s0-0.1,0-0.2c0,0,0-0.1,0-0.1c0,0,0-0.1,0-0.1c0,0,0-0.1,0-0.1c0,0,0,0,0,0
				c0,0,0,0,0.1-0.1c0,0,0.1-0.1,0.1-0.1c0.1,0,0.1-0.1,0.2-0.1c0,0,0.1,0,0.1,0c0,0,0,0,0.1,0.1c0,0,0,0.1,0.1,0.1
				c0,0,0,0.1,0.1,0.1c0,0,0,0.1,0,0.1c0,0,0,0,0,0c0,0,0,0,0,0c0,0-0.1,0-0.1,0.1c0,0-0.1,0-0.1,0.1c0,0-0.1,0-0.1,0.1
				c0,0-0.1,0-0.1,0.1c0,0,0,0-0.1,0c0,0,0,0,0,0c0,0,0,0,0,0c0,0,0,0,0,0c0,0,0,0,0,0s0,0,0,0c0,0,0,0,0,0c0,0,0,0,0.1,0
				c0,0,0.1,0,0.1,0c0,0,0.1,0,0.1-0.1c0,0,0.1-0.1,0.1-0.1c0,0,0,0,0,0c0,0,0,0,0,0c0,0,0,0,0,0c0,0,0,0,0,0s0,0.1,0,0.1
				c0,0,0,0.1,0,0.1c0,0,0,0.1-0.1,0.1c0,0,0,0-0.1,0.1c0,0,0,0,0,0c0,0-0.1,0-0.1,0c0,0-0.1,0-0.1-0.1C24,19.9,23.9,19.9,23.8,19.7
				C23.9,19.8,23.8,19.8,23.8,19.7z M24.2,19C24.2,19,24.1,19,24.2,19c-0.1,0.1-0.1,0.1-0.1,0.1c0,0,0,0.1-0.1,0.2
				c0,0.1,0,0.1,0,0.2c0,0,0,0,0,0c0,0,0,0,0.1,0c0,0,0.1,0,0.1-0.1c0,0,0.1-0.1,0.1-0.1c0,0,0-0.1,0-0.1c0,0,0,0,0-0.1
				C24.2,19.2,24.2,19.1,24.2,19C24.2,19.1,24.2,19.1,24.2,19C24.2,19,24.2,19,24.2,19z"/>
		</g>
	</g>
</g>
</svg>
